# xmcd
#
# Track frame offsets: 
#        150
#        27333
#        45746
#        68233
#
# Disc length: 1118 seconds
#
# Revision: 1
# Processed by: cddbd v1.5.2PL0 Copyright (c) Steve Scherf et al.
# Submitted via: ExactAudioCopy v0.99pb4
#
DISCID=30045c04
DTITLE=The Smashing Pumpkins - Teargarden By Kaleidyscope Vol.1
DYEAR=2010
DGENRE=Alternative
TTITLE0=Song For A Son
TTITLE1=Astral Planes
TTITLE2=Widow Wake My Mind
TTITLE3=Stitch in Time
EXTD=
EXTT0=
EXTT1=
EXTT2=
EXTT3=
PLAYORDER=
